<svg xmlns="http://www.w3.org/2000/svg" data-name="Layer 1" width="150" height="59.43" style=""><rect id="backgroundrect" width="100%" height="100%" x="0" y="0" fill="none" stroke="none"/><defs><style>.cls-1{stroke:#FFF;stroke-miterlimit:10;stroke-width:0.75px;}</style></defs><title>Untitled-2</title><g class="currentLayer" style=""><title>Layer 1</title><path d="M34.51,51.350000152587896 l11.21,-6.14 c0.06000000000000001,0 0.2,-0.07 0.18000000000000002,-0.14 s-0.28,-0.1 -0.3400000000000001,-0.12000000000000001 l-0.7600000000000001,-0.25 a7.66,7.66 0 0 1 -1.46,-0.5800000000000001 a6.46,6.46 0 0 1 -1.21,-0.79 c-0.39000000000000007,-0.35000000000000003 -0.7300000000000001,-0.7400000000000001 -1.08,-1.12 c-0.16000000000000003,-0.16000000000000003 -0.11000000000000001,-0.15000000000000002 -0.31000000000000005,-0.05000000000000001 L36.59,44.39000015258789 l-11.05,6 L15,44.40000015258789 L8.89,40.95000015258789 l-0.16000000000000003,-0.1 a0,0 0 0 1 0,-0.05000000000000001 a0.46,0.46 0 0 0 0.07,-0.07 c0.35000000000000003,-0.29000000000000004 0.7100000000000001,-0.5900000000000001 1,-0.8900000000000001 c0.6500000000000001,-0.55 1.27,-1.12 1.8800000000000001,-1.7200000000000002 A11.33,11.33 0 0 0 13,36.690000152587885 q0.48000000000000004,-0.6600000000000001 0.93,-1.35 c0.43000000000000005,-0.6800000000000002 0.8500000000000001,-1.36 1.27,-2 s0.9,-1.49 1.36,-2.22 c0.35000000000000003,-0.55 0.7100000000000001,-1.09 1.1,-1.62 a10.25,10.25 0 0 1 0.8300000000000001,-1 a4.62,4.62 0 0 1 0.5,-0.49000000000000005 a3,3 0 0 1 0.46,-0.33000000000000007 a1.46,1.46 0 0 1 0.36000000000000004,-0.16000000000000003 a1.06,1.06 0 0 1 0.56,0 a1.5,1.5 0 0 1 0.5,0.22000000000000003 a2.59,2.59 0 0 1 0.48000000000000004,0.38000000000000006 c0.15000000000000002,0.15000000000000002 0.29000000000000004,0.31000000000000005 0.43000000000000005,0.47000000000000003 a11.15,11.15 0 0 1 0.6600000000000001,0.92 q0.38000000000000006,0.5700000000000001 0.7200000000000001,1.17 l1.07,1.87 c0.37000000000000005,0.6600000000000001 0.7400000000000001,1.31 1.15,1.94 a17.39,17.39 0 0 0 1.42,2 A13.24,13.24 0 0 0 28,37.720000152587886 l0.42000000000000004,0.37000000000000005 a0.24000000000000002,0.24000000000000002 0 0 0 0.14,0 h0 l2.51,0 l1.08,0 l2.12,0 h0.1 a0,0 0 0 0 0,0 v-0.19000000000000003 c0,-0.7500000000000001 0,-1.5 0,-2.24 c0,-0.16000000000000003 0,-0.33000000000000007 0,-0.5 l-0.11000000000000001,-0.11000000000000001 c-0.28,-0.29000000000000004 -0.56,-0.5700000000000001 -0.8300000000000001,-0.8700000000000001 a46.66,46.66 0 0 1 -3.24,-3.91 c-0.56,-0.7500000000000001 -1.09,-1.51 -1.59,-2.3 c-0.27,-0.43000000000000005 -0.53,-0.8700000000000001 -0.79,-1.3 c-0.36000000000000004,-0.6100000000000001 -0.7200000000000001,-1.21 -1.1,-1.8 s-0.6900000000000002,-1 -1.07,-1.5 a11.54,11.54 0 0 0 -1.17,-1.25 a6.48,6.48 0 0 0 -1.08,-0.81 a5.69,5.69 0 0 0 -3,-0.8700000000000001 a8,8 0 0 0 -1.2,0.06000000000000001 c-0.32000000000000006,0 -0.6400000000000001,0.09000000000000002 -1,0.16000000000000003 a7.05,7.05 0 0 0 -3.13,1.61 a10.82,10.82 0 0 0 -1,1.1 a16.35,16.35 0 0 0 -1,1.44 c-0.26,0.41000000000000003 -0.52,0.8300000000000001 -0.77,1.25 a50.88,50.88 0 0 1 -4.22,6 c-0.5,0.6100000000000001 -1,1.2 -1.57,1.7600000000000002 c-0.23,0.24000000000000002 -0.47000000000000003,0.48000000000000004 -0.7200000000000001,0.7000000000000001 a10.21,10.21 0 0 1 -1.7000000000000002,1.2 a14.17,14.17 0 0 1 -2.06,0.9400000000000001 a13.41,13.41 0 0 1 -2,0.56 l-0.11000000000000001,0 a0.55,0.55 0 0 0 0,0.18000000000000002 v4.5 a0.09000000000000002,0.09000000000000002 0 0 0 0,0.08000000000000002 l0.12000000000000001,0.07 l7.18,4.12 l9.8,5.63 l8.07,4.57 z" id="svg_1" class="" fill="#ffffff" fill-opacity="1"/><path d="M0,15.170000152587889 a1.85,1.85 0 0 0 0,0.23 V35.95000015258789 c0,0.16000000000000003 0,0.15000000000000002 0.15000000000000002,0.12000000000000001 h0 A12.43,12.43 0 0 0 1.6600000000000001,35.59000015258789 a12.32,12.32 0 0 0 2,-0.93 a8.25,8.25 0 0 0 1.6800000000000002,-1.27 c0.09000000000000002,-0.09000000000000002 0.09000000000000002,-0.08000000000000002 0.09000000000000002,-0.19000000000000003 v-15 a0.17,0.17 0 0 1 0,-0.1 l0,0 l0.07,0 l8.21,-4.59 l9.85,-5.5 l1.47,-0.8200000000000001 a0.48000000000000004,0.48000000000000004 0 0 1 0.16000000000000003,-0.08000000000000002 a1,1 0 0 1 0.17,0.1 l4.72,2.77 l16.11,9.47 c0.22000000000000003,0.12000000000000001 0.19000000000000003,0.07 0.19000000000000003,0.31000000000000005 v3.66 c0,0.09000000000000002 0.12000000000000001,13.22 0.12000000000000001,13.28 c0,1.81 -0.8,0.77 -1.11,0.32000000000000006 a47.55,47.55 0 0 1 -2.91,-4.15 c-0.8800000000000001,-1.46 -1.73,-2.9 -2.55,-4.39 c-0.38000000000000006,-0.7000000000000001 -0.7100000000000001,-1.1400000000000001 -1.12,-1.82 c-0.56,-0.93 -1.17,-1.84 -1.79,-2.73 q-0.30000000000000004,-0.44000000000000006 -0.6300000000000001,-0.8400000000000001 a12.09,12.09 0 0 0 -0.8300000000000001,-0.92 a7.07,7.07 0 0 0 -4.3,-2 c-0.25,0 -0.5,0 -0.7500000000000001,-0.06000000000000001 a5,5 0 0 0 -0.6700000000000002,0 a4.91,4.91 0 0 0 -0.6700000000000002,0.09000000000000002 a5.24,5.24 0 0 0 -1.6500000000000001,0.6200000000000001 a6.74,6.74 0 0 0 -1.48,1.18 a0.1,0.1 0 0 0 0,0 s0,0.06000000000000001 0.06000000000000001,0.09000000000000002 l0.41000000000000003,0.48000000000000004 a17.35,17.35 0 0 1 1.08,1.47 c0.39000000000000007,0.5800000000000001 0.7500000000000001,1.19 1.11,1.79 l0.8700000000000001,1.4300000000000002 l0.08000000000000002,0.13 l0,0 l0.11000000000000001,-0.06000000000000001 l0.22000000000000003,-0.11000000000000001 a1.23,1.23 0 0 1 0.78,-0.07 a2.21,2.21 0 0 1 0.55,0.23 a3.9,3.9 0 0 1 0.54,0.36000000000000004 c0.22000000000000003,0.18000000000000002 0.43000000000000005,0.38000000000000006 0.6300000000000001,0.5800000000000001 a15.05,15.05 0 0 1 1,1.21 c0.5,0.6400000000000001 1,1.31 1.4100000000000001,2 c0.5800000000000001,0.8700000000000001 1.13,1.7600000000000002 1.6800000000000002,2.6500000000000004 l1.82,3 c0.51,0.8200000000000001 1,1.6400000000000001 1.59,2.44 a18.53,18.53 0 0 0 2.3,2.63 a6.75,6.75 0 0 0 2.36,1.47 a4.78,4.78 0 0 0 2.95,0.35000000000000003 a5.640000000000001,5.640000000000001 0 0 0 3.8200000000000003,-3.09 a14.73,14.73 0 0 0 0.44000000000000006,-5 V16.640000152587888 a0.1,0.1 0 0 0 -0.05000000000000001,-0.08000000000000002 l-0.16000000000000003,-0.1 l-5.69,-3.3 l-9.78,-5.7 l-7.44,-4.32 l-3.38,-2 l-0.13,-0.07 a0,0 0 0 0 -0.06000000000000001,0 l-0.13,0.07 l-1.79,1 l-10.61,5.9 L0.5800000000000001,14.84000015258789 l-0.48000000000000004,0.27 L0,15.170000152587889 " id="svg_2" class="" stroke="#ffffff" stroke-opacity="1" fill="#ffffff" fill-opacity="1"/><path d="M16.22,34.84000015258789 l0.05000000000000001,0 a17.84,17.84 0 0 0 1.9100000000000001,-1.6700000000000002 A26.38,26.38 0 0 0 21,29.81000015258789 a1.13,1.13 0 0 1 0.1,-0.13 a0,0 0 0 1 0,0 l0.08000000000000002,0.12000000000000001 c0.16000000000000003,0.23 0.31000000000000005,0.47000000000000003 0.46,0.7100000000000001 c0.36000000000000004,0.56 0.6800000000000002,1.1400000000000001 1,1.7200000000000002 s0.7300000000000001,1.29 1.11,1.9300000000000002 l0.6400000000000001,1 l0.07,0.11000000000000001 s0,0 0,0.05000000000000001 a0.39000000000000007,0.39000000000000007 0 0 1 -0.08000000000000002,0.1 a11.68,11.68 0 0 1 -1.26,1.46 a10.47,10.47 0 0 1 -1.05,1 c-0.2,0.15000000000000002 -0.13,0.12000000000000001 -0.37000000000000005,0.12000000000000001 h-5.4 c-0.2,0 -0.19000000000000003,0 -0.19000000000000003,-0.18000000000000002 l0,-2.34 v-0.54 S16.22,34.87000015258789 16.22,34.84000015258789 z" id="svg_3" class="" fill="#ffffff" fill-opacity="1"/><path d="M65.78,30.320000152587887 a1.6700000000000002,1.6700000000000002 0 0 0 -0.6200000000000001,-1.37 a8.12,8.12 0 0 0 -2.19,-1 a20.34,20.34 0 0 1 -2.55,-1 c-2.16,-1 -3.23,-2.51 -3.23,-4.35 a4,4 0 0 1 0.8,-2.44 a5.25,5.25 0 0 1 2.2800000000000002,-1.6400000000000001 a8.870000000000001,8.870000000000001 0 0 1 3.31,-0.5900000000000001 a7.7,7.7 0 0 1 3.21,0.6400000000000001 A5.08,5.08 0 0 1 69,20.360000152587894 a4.73,4.73 0 0 1 0.79,2.7 h-4 a2,2 0 0 0 -0.6200000000000001,-1.58 a2.46,2.46 0 0 0 -1.6900000000000002,-0.56 a2.6900000000000004,2.6900000000000004 0 0 0 -1.6900000000000002,0.48000000000000004 a1.44,1.44 0 0 0 -0.6200000000000001,1.2 a1.48,1.48 0 0 0 0.6800000000000002,1.1600000000000001 a8.620000000000001,8.620000000000001 0 0 0 2.41,1.07 a15.25,15.25 0 0 1 2.83,1.19 a4.77,4.77 0 0 1 2.6900000000000004,4.28 a4.07,4.07 0 0 1 -1.6400000000000001,3.42 a7.32,7.32 0 0 1 -4.51,1.25 A9,9 0 0 1 60,34.24000015258789 a5.5,5.5 0 0 1 -2.47,-2 a5.19,5.19 0 0 1 -0.8200000000000001,-2.91 h4 a2.55,2.55 0 0 0 0.6900000000000002,2 a3.2800000000000002,3.2800000000000002 0 0 0 2.24,0.6300000000000001 a2.6100000000000003,2.6100000000000003 0 0 0 1.57,-0.42000000000000004 A1.4100000000000001,1.4100000000000001 0 0 0 65.78,30.320000152587887 z" id="svg_4" class="" fill="#ffffff" fill-opacity="1"/><path d="M75.55,19.330000152587893 v3.07 h2 v2.67 h-2 v5.640000000000001 a1.4100000000000001,1.4100000000000001 0 0 0 0.25,1 a1.36,1.36 0 0 0 1,0.27 a6.46,6.46 0 0 0 1,-0.06000000000000001 v2.75 a7.08,7.08 0 0 1 -2.17,0.33000000000000007 a4,4 0 0 1 -2.93,-0.9400000000000001 a3.83,3.83 0 0 1 -0.9400000000000001,-2.84 V25.070000152587887 H70.13 V22.400000152587893 h1.58 V19.330000152587893 z" id="svg_5" class="" fill="#ffffff" fill-opacity="1"/><path d="M85.46,34.74000015258789 A4,4 0 0 1 85.1,33.59000015258789 a3.59,3.59 0 0 1 -3,1.34 a4.38,4.38 0 0 1 -3,-1.06 a3.37,3.37 0 0 1 -1.22,-2.6500000000000004 a3.47,3.47 0 0 1 1.49,-3 a7.58,7.58 0 0 1 4.3100000000000005,-1 h1.19 V26.59000015258789 c0,-1.13 -0.5,-1.7000000000000002 -1.48,-1.7000000000000002 a1.2,1.2 0 0 0 -1.37,1.35 H78.24 a3.47,3.47 0 0 1 1.52,-2.91 a6.44,6.44 0 0 1 3.89,-1.11 a5.6,5.6 0 0 1 3.73,1.15 a4,4 0 0 1 1.4,3.16 v5.46 a5.55,5.55 0 0 0 0.53,2.6 v0.2 zm-2.41,-2.51 a2.14,2.14 0 0 0 1.2,-0.31000000000000005 a2,2 0 0 0 0.6800000000000002,-0.7000000000000001 v-2 H83.81 q-2,0 -2,1.8 a1.11,1.11 0 0 0 0.35000000000000003,0.8500000000000001 A1.28,1.28 0 0 0 83.05,32.23000015258789 z" id="svg_6" class="" fill="#ffffff" fill-opacity="1"/><path d="M94.8,19.330000152587893 v3.07 h2 v2.67 h-2 v5.640000000000001 a1.47,1.47 0 0 0 0.25,1 a1.36,1.36 0 0 0 1,0.27 a6.37,6.37 0 0 0 1,-0.06000000000000001 v2.75 a7.07,7.07 0 0 1 -2.16,0.33000000000000007 a4,4 0 0 1 -2.94,-0.9400000000000001 A3.83,3.83 0 0 1 91,31.190000152587892 V25.070000152587887 H89.38 V22.400000152587893 H91 V19.330000152587893 z" id="svg_7" class="" fill="#ffffff" fill-opacity="1"/><path d="M97.73,19.210000152587888 a1.73,1.73 0 0 1 0.5900000000000001,-1.34 a2.25,2.25 0 0 1 1.54,-0.53 a2.22,2.22 0 0 1 1.54,0.53 a1.81,1.81 0 0 1 0,2.6900000000000004 a2.21,2.21 0 0 1 -1.54,0.52 A2.24,2.24 0 0 1 98.32,20.59000015258789 A1.7400000000000002,1.7400000000000002 0 0 1 97.73,19.210000152587888 zm4.09,15.53 H98 V22.400000152587893 h3.8600000000000003 z" id="svg_8" class="" fill="#ffffff" fill-opacity="1"/><path d="M110.06,31.27000015258789 a0.8900000000000001,0.8900000000000001 0 0 0 -0.51,-0.79 a8.34,8.34 0 0 0 -2,-0.6100000000000001 a9.12,9.12 0 0 1 -2.38,-0.8400000000000001 a4,4 0 0 1 -1.42,-1.26 a3,3 0 0 1 -0.49000000000000005,-1.7000000000000002 a3.39,3.39 0 0 1 1.4,-2.8 a5.75,5.75 0 0 1 3.67,-1.1 a6.47,6.47 0 0 1 3.93,1.1 a3.46,3.46 0 0 1 1.48,2.91 h-3.8600000000000003 c0,-1 -0.52,-1.48 -1.56,-1.48 a1.51,1.51 0 0 0 -1,0.3400000000000001 a1,1 0 0 0 -0.41000000000000003,0.8300000000000001 a1,1 0 0 0 0.5,0.8400000000000001 a4.640000000000001,4.640000000000001 0 0 0 1.6,0.52 a14.21,14.21 0 0 1 1.9300000000000002,0.49000000000000005 q2.79,1 2.79,3.44 a3.24,3.24 0 0 1 -1.5,2.75 a6.65,6.65 0 0 1 -3.89,1.06 a6.75,6.75 0 0 1 -2.83,-0.5700000000000001 a4.8,4.8 0 0 1 -1.94,-1.56 a3.52,3.52 0 0 1 -0.6900000000000002,-2.06 h3.59 a1.51,1.51 0 0 0 0.5700000000000001,1.25 a2.4,2.4 0 0 0 1.4100000000000001,0.39000000000000007 a1.82,1.82 0 0 0 1.18,-0.32000000000000006 A1,1 0 0 0 110.06,31.27000015258789 z" id="svg_9" class="" fill="#ffffff" fill-opacity="1"/><path d="M119.46,19.330000152587893 v3.07 h2 v2.67 h-2 v5.640000000000001 a1.4100000000000001,1.4100000000000001 0 0 0 0.25,1 a1.36,1.36 0 0 0 1,0.27 a6.46,6.46 0 0 0 1,-0.06000000000000001 v2.75 a7.13,7.13 0 0 1 -2.17,0.33000000000000007 a4,4 0 0 1 -2.93,-0.9400000000000001 a3.83,3.83 0 0 1 -1,-2.84 V25.070000152587887 H114 V22.400000152587893 h1.57 V19.330000152587893 z" id="svg_10" class="" fill="#ffffff" fill-opacity="1"/><path d="M122.39,19.210000152587888 a1.7000000000000002,1.7000000000000002 0 0 1 0.5900000000000001,-1.34 a2.5,2.5 0 0 1 3.08,0 a1.83,1.83 0 0 1 0,2.6900000000000004 A2.54,2.54 0 0 1 123,20.59000015258789 A1.7000000000000002,1.7000000000000002 0 0 1 122.39,19.210000152587888 zm4.08,15.53 h-3.8600000000000003 V22.400000152587893 h3.8600000000000003 z" id="svg_11" class="" fill="#ffffff" fill-opacity="1"/><path d="M133.47,32.00000015258789 a1.7400000000000002,1.7400000000000002 0 0 0 1.26,-0.44000000000000006 a1.61,1.61 0 0 0 0.43000000000000005,-1.22 h3.6100000000000003 a4.28,4.28 0 0 1 -1.46,3.33 a6.11,6.11 0 0 1 -8,-0.39000000000000007 A6.69,6.69 0 0 1 127.77,28.59000015258789 v-0.16000000000000003 a7.49,7.49 0 0 1 0.6900000000000002,-3.3 a5,5 0 0 1 2,-2.2 a5.87,5.87 0 0 1 3.08,-0.77 a5.34,5.34 0 0 1 3.8200000000000003,1.33 a4.76,4.76 0 0 1 1.42,3.62 h-3.6100000000000003 a2.11,2.11 0 0 0 -0.47000000000000003,-1.47 a1.59,1.59 0 0 0 -1.25,-0.52 c-1,0 -1.58,0.6400000000000001 -1.75,1.9100000000000001 a14.06,14.06 0 0 0 -0.08000000000000002,1.6600000000000001 a5.24,5.24 0 0 0 0.45,2.58 A1.53,1.53 0 0 0 133.47,32.00000015258789 z" id="svg_12" class="" fill="#ffffff" fill-opacity="1"/><path d="M146.27,31.27000015258789 a0.8900000000000001,0.8900000000000001 0 0 0 -0.51,-0.79 a8.34,8.34 0 0 0 -1.9500000000000002,-0.6100000000000001 a9.12,9.12 0 0 1 -2.38,-0.8400000000000001 A4,4 0 0 1 140,27.77000015258789 a3,3 0 0 1 -0.49000000000000005,-1.7000000000000002 a3.39,3.39 0 0 1 1.4,-2.8 a5.73,5.73 0 0 1 3.67,-1.1 a6.47,6.47 0 0 1 3.93,1.1 A3.46,3.46 0 0 1 150,26.180000152587894 h-3.8600000000000003 c0,-1 -0.52,-1.48 -1.56,-1.48 a1.51,1.51 0 0 0 -1,0.3400000000000001 a1,1 0 0 0 -0.41000000000000003,0.8300000000000001 a1,1 0 0 0 0.5,0.8400000000000001 a4.640000000000001,4.640000000000001 0 0 0 1.6,0.52 a14.21,14.21 0 0 1 1.9300000000000002,0.49000000000000005 q2.79,1 2.79,3.44 a3.24,3.24 0 0 1 -1.5,2.75 a6.65,6.65 0 0 1 -3.89,1.06 a6.75,6.75 0 0 1 -2.83,-0.5700000000000001 a4.73,4.73 0 0 1 -1.94,-1.56 a3.52,3.52 0 0 1 -0.6900000000000002,-2.06 h3.59 a1.51,1.51 0 0 0 0.5700000000000001,1.25 a2.38,2.38 0 0 0 1.4,0.39000000000000007 a1.84,1.84 0 0 0 1.19,-0.32000000000000006 A1,1 0 0 0 146.27,31.27000015258789 z" id="svg_13" class="" fill="#ffffff" fill-opacity="1"/><path d="M65.8,50.03000015258789 a1.6600000000000001,1.6600000000000001 0 0 0 -0.6200000000000001,-1.37 a7.78,7.78 0 0 0 -2.19,-1 a20.49,20.49 0 0 1 -2.55,-1 q-3.22,-1.59 -3.23,-4.36 a3.92,3.92 0 0 1 0.8,-2.43 a5.27,5.27 0 0 1 2.2800000000000002,-1.6500000000000001 A8.88,8.88 0 0 1 63.6,37.59000015258789 a7.86,7.86 0 0 1 3.21,0.6300000000000001 A5.24,5.24 0 0 1 69,40.06000015258789 a4.8,4.8 0 0 1 0.78,2.7 h-4 a2,2 0 0 0 -0.6200000000000001,-1.57 A2.4,2.4 0 0 0 63.51,40.59000015258789 a2.79,2.79 0 0 0 -1.7000000000000002,0.47000000000000003 a1.4,1.4 0 0 0 0.06000000000000001,2.36 A8.57,8.57 0 0 0 64.28,44.59000015258789 a14,14 0 0 1 2.83,1.19 a4.76,4.76 0 0 1 2.6900000000000004,4.28 a4.07,4.07 0 0 1 -1.6400000000000001,3.42 a7.32,7.32 0 0 1 -4.51,1.24 A9,9 0 0 1 60,53.95000015258789 a5.59,5.59 0 0 1 -2.47,-2 a5.18,5.18 0 0 1 -0.8200000000000001,-2.9 h4 a2.56,2.56 0 0 0 0.6900000000000002,2 a3.2800000000000002,3.2800000000000002 0 0 0 2.24,0.6300000000000001 a2.5300000000000002,2.5300000000000002 0 0 0 1.57,-0.43000000000000005 A1.3800000000000001,1.3800000000000001 0 0 0 65.8,50.03000015258789 z" id="svg_14" class="" fill="#ffffff" fill-opacity="1"/><path d="M70.61,48.160000152587884 a7.27,7.27 0 0 1 0.7200000000000001,-3.29 a5.1,5.1 0 0 1 2.06,-2.22 a6.2,6.2 0 0 1 3.16,-0.78 A5.65,5.65 0 0 1 80.92,43.59000015258789 a6.55,6.55 0 0 1 1.6,4.67 v0.14 a6.39,6.39 0 0 1 -1.6,4.58 a5.69,5.69 0 0 1 -4.34,1.6900000000000002 a5.79,5.79 0 0 1 -4.24,-1.58 a6.22,6.22 0 0 1 -1.7200000000000002,-4.28 zm3.84,0.24000000000000002 A4.59,4.59 0 0 0 75,50.910000152587884 a1.8,1.8 0 0 0 1.59,0.8 c1.37,0 2.07,-1.06 2.1,-3.16 v-0.39000000000000007 c0,-2.22 -0.7100000000000001,-3.3200000000000003 -2.13,-3.3200000000000003 s-2,1 -2.08,2.8600000000000003 z" id="svg_15" class="" fill="#ffffff" fill-opacity="1"/><path d="M88.85,51.710000152587895 a1.7000000000000002,1.7000000000000002 0 0 0 1.25,-0.44000000000000006 a1.6600000000000001,1.6600000000000001 0 0 0 0.44000000000000006,-1.23 h3.6 a4.27,4.27 0 0 1 -1.45,3.33 a5.4,5.4 0 0 1 -3.75,1.3 a5.46,5.46 0 0 1 -4.24,-1.6900000000000002 a6.61,6.61 0 0 1 -1.56,-4.67 v-0.16000000000000003 a7.5600000000000005,7.5600000000000005 0 0 1 0.7000000000000001,-3.31 a5.06,5.06 0 0 1 2,-2.2 a5.94,5.94 0 0 1 3.08,-0.77 a5.36,5.36 0 0 1 3.8200000000000003,1.34 a4.73,4.73 0 0 1 1.4100000000000001,3.6100000000000003 h-3.6 a2.11,2.11 0 0 0 -0.47000000000000003,-1.47 a1.62,1.62 0 0 0 -1.26,-0.51 c-1,0 -1.57,0.6300000000000001 -1.7400000000000002,1.9 A14.25,14.25 0 0 0 87,48.410000152587884 a5.38,5.38 0 0 0 0.44000000000000006,2.58 A1.55,1.55 0 0 0 88.85,51.710000152587895 z" id="svg_16" class="" fill="#ffffff" fill-opacity="1"/><path d="M95.15,38.92000015258789 a1.71,1.71 0 0 1 0.6000000000000001,-1.35 a2.54,2.54 0 0 1 3.08,0 a1.7400000000000002,1.7400000000000002 0 0 1 0.5900000000000001,1.35 a1.71,1.71 0 0 1 -0.5900000000000001,1.34 a2.5,2.5 0 0 1 -3.08,0 A1.6900000000000002,1.6900000000000002 0 0 1 95.15,38.92000015258789 zm4.09,15.52 H95.38 V42.100000152587896 h3.8600000000000003 z" id="svg_17" class="" fill="#ffffff" fill-opacity="1"/><path d="M107,54.67000015258789 a6.33,6.33 0 0 1 -4.59,-1.6900000000000002 A5.82,5.82 0 0 1 100.64,48.59000015258789 v-0.32000000000000006 a7.53,7.53 0 0 1 0.7000000000000001,-3.34 a5.06,5.06 0 0 1 2,-2.24 a6.17,6.17 0 0 1 3.19,-0.8 a5.34,5.34 0 0 1 4.11,1.62 a6.34,6.34 0 0 1 1.5,4.5 v1.49 h-7.640000000000001 a2.79,2.79 0 0 0 0.9,1.6300000000000001 a2.6900000000000004,2.6900000000000004 0 0 0 1.81,0.6000000000000001 a3.47,3.47 0 0 0 2.85,-1.28 l1.75,2.07 a4.890000000000001,4.890000000000001 0 0 1 -2,1.58 A6.94,6.94 0 0 1 107,54.67000015258789 zm-0.43000000000000005,-9.83 c-1.13,0 -1.8,0.7400000000000001 -2,2.23 h3.88 v-0.29000000000000004 a1.71,1.71 0 0 0 -1.87,-1.94 z" id="svg_18" class="" fill="#ffffff" fill-opacity="1"/><path d="M117.63,39.03000015258789 v3.07 h2 v2.67 h-2 v5.65 a1.51,1.51 0 0 0 0.25,1 a1.3800000000000001,1.3800000000000001 0 0 0 1,0.27 a5.24,5.24 0 0 0 1,-0.07 v2.75 a7.18,7.18 0 0 1 -2.17,0.33000000000000007 a4,4 0 0 1 -2.93,-0.93 a3.8600000000000003,3.8600000000000003 0 0 1 -0.9500000000000001,-2.84 V44.7700001525879 h-1.57 V42.100000152587896 h1.57 V39.03000015258789 z" id="svg_19" class="" fill="#ffffff" fill-opacity="1"/><path d="M125.53,49.06000015258789 l2,-7 h4.12 l-5,14.41 l-0.22000000000000003,0.52 a3.83,3.83 0 0 1 -3.79,2.4 a6,6 0 0 1 -1.58,-0.23 V56.460000152587895 h0.5 a2.74,2.74 0 0 0 1.24,-0.23 a1.48,1.48 0 0 0 0.6300000000000001,-0.8400000000000001 l0.31000000000000005,-0.8200000000000001 l-4.29,-12.47 h4.1 z" id="svg_20" class="" fill="#ffffff" fill-opacity="1"/><path class="cls-1" d="M68,0.5900001525878906 v9.61 a4.65,4.65 0 0 1 -1.31,3.51 a5.59,5.59 0 0 1 -7.07,0 a4.66,4.66 0 0 1 -1.32,-3.48 V0.5900001525878906 h0.53 v9.59 A4.11,4.11 0 0 0 60,13.27000015258789 a4.32,4.32 0 0 0 3.15,1.15 a4.27,4.27 0 0 0 3.13,-1.15 a4.14,4.14 0 0 0 1.18,-3.12 V0.5900001525878906 z" id="svg_21" fill="#ffffff" fill-opacity="1"/><path class="cls-1" d="M82,14.750000152587887 h-0.52 L72.28,1.4600001525878916 V14.750000152587887 h-0.54 V0.5900001525878906 h0.54 l9.16,13.26 V0.5900001525878906 H82 z" id="svg_22" fill="#ffffff" fill-opacity="1"/><path class="cls-1" d="M94.36,11.350000152587889 a2.62,2.62 0 0 0 -0.43000000000000005,-1.53 a3.58,3.58 0 0 0 -1.33,-1.11 a14.74,14.74 0 0 0 -2.7600000000000002,-1 a13.63,13.63 0 0 1 -2.7600000000000002,-1 a3.8200000000000003,3.8200000000000003 0 0 1 -1.35,-1.2 a3.13,3.13 0 0 1 -0.43000000000000005,-1.6600000000000001 a3,3 0 0 1 1.31,-2.51 a6.25,6.25 0 0 1 5.85,-0.43000000000000005 A4,4 0 0 1 94.74,4.590000152587891 h-0.53 A3.34,3.34 0 0 0 93,1.940000152587892 a4.36,4.36 0 0 0 -3,-1 a5.1,5.1 0 0 0 -3,0.8300000000000001 a2.52,2.52 0 0 0 -1.15,2.09 a2.48,2.48 0 0 0 1,2.06 a9.53,9.53 0 0 0 3.3200000000000003,1.3800000000000001 a10.17,10.17 0 0 1 3.38,1.3900000000000001 a3.3200000000000003,3.3200000000000003 0 0 1 0.7600000000000001,4.58 a3.91,3.91 0 0 1 -1.7200000000000002,1.27 a6.57,6.57 0 0 1 -2.49,0.45 a7.16,7.16 0 0 1 -2.77,-0.51 a3.73,3.73 0 0 1 -2.46,-3.6900000000000004 h0.52 a3.18,3.18 0 0 0 1.31,2.71 a5.59,5.59 0 0 0 3.4,1 A5.2,5.2 0 0 0 93.15,13.59000015258789 A2.62,2.62 0 0 0 94.36,11.350000152587889 z" id="svg_23" fill="#ffffff" fill-opacity="1"/><path class="cls-1" d="M100.48,13.88000015258789 l0.6400000000000001,-2.34 l3.35,-11 h0.5900000000000001 l3.33,11 l0.6300000000000001,2.34 l0.6600000000000001,-2.34 l2.93,-11 h0.5700000000000001 l-3.8200000000000003,14.18 h-0.5900000000000001 l-3.52,-11.82 l-0.5,-1.51 l-0.47000000000000003,1.51 l-3.55,11.82 h-0.6000000000000001 L96.31,0.5900001525878906 h0.5800000000000001 l2.94,11 z" id="svg_24" fill="#ffffff" fill-opacity="1"/></g></svg>